<svg xmlns="http://www.w3.org/2000/svg" version="1.1" xmlns:xlink="http://www.w3.org/1999/xlink" xmlns:svgjs="http://svgjs.dev/svgjs" width="1000" height="1125" viewBox="0 0 1000 1125"><g transform="matrix(1,0,0,1,1.7053025658242404e-13,0)"><svg viewBox="0 0 320 360" data-background-color="#ffffff" preserveAspectRatio="xMidYMid meet" height="1125" width="1000" xmlns="http://www.w3.org/2000/svg" xmlns:xlink="http://www.w3.org/1999/xlink"><g id="tight-bounds" transform="matrix(1,0,0,1,0,0)"><svg viewBox="0 0 320 360" height="360" width="320"><g><svg></svg></g><g><svg viewBox="0 0 320 360" height="360" width="320"><g><path xmlns="http://www.w3.org/2000/svg" d="M20.961 227.22l3.726 4.658-1.863-6.056c-0.466-2.795-3.726 0.466-1.863 1.398M25.153 224.425c1.397 2.329 2.795 4.658 2.795 6.987 0 3.261 2.795 4.658 5.123 5.589-3.261-3.726-5.124-13.974-7.918-12.576M204.017 26.929c7.918 0 15.371-0.932 23.756 0.931 20.495 5.124 37.729 15.371 49.374 29.811l32.606 52.169c1.397 13.042 4.192 27.482 3.726 43.319 3.261 0 2.795-4.658 6.521-5.59-3.726 9.316-5.59 20.961-6.521 34.469-2.329-7.453 0-18.632 0.466-24.687-3.261 5.124-5.124 1.397-5.124-0.932 0.466-3.726-1.397-3.261-2.795-4.658-5.124-4.658-8.384-9.782-12.11-17.7 2.329-6.055 2.795-14.905-4.658-19.563-2.329-1.397-5.124-3.726-6.521-7.453-1.863-5.124-5.124-11.179-4.193-19.097 0.466-2.329-6.987 5.124-11.179 1.863-18.166-12.576-36.332-27.016-58.224-39.127-11.645 0-20.029-4.192-24.221-9.316-3.726-4.658-0.932-10.713 4.658-11.179 3.261 0 6.987-0.932 9.782 0.932 0.466-1.863 2.329-4.192 4.657-4.192M157.904 16.215l0.932 0.466c4.658 0.932 6.987 7.453 12.11 5.124 0 3.261 0.466 6.521-0.466 8.85-1.397 3.726-5.59 3.726-8.85 3.726-31.208-1.863-49.374 11.179-68.471 22.358-5.124 3.261-10.713 5.59-14.906 9.782-20.029 18.632-41.921 35.866-47.045 70.335l-4.192 38.195c-0.466 4.192-5.124 8.384-4.192 13.508l3.26 22.824c-3.261-3.261-5.124 0.932-4.192 2.795 0.466 1.397 2.329 6.055 5.124 1.863 3.726 6.987 7.453 20.495 12.576 26.55 15.837 18.632 36.332 35.4 53.101 52.169 4.192-0.932 7.453-0.932 8.384-3.727 1.397 2.795-1.397 5.59-3.726 6.056 7.453 4.658 15.837 8.85 27.016 9.781 14.44 0.932 27.948 3.261 40.524 6.522 6.521-1.863 13.042-2.795 20.029-3.261 2.329 0 3.726-3.726 6.521-4.658l0.466-4.658c2.795 4.192 2.329-1.397 0.466-4.192 3.261 2.795 4.192 5.124 5.589 6.987 0-1.397 3.726-6.521 3.727-0.466l0.931-6.055c1.397-0.932 1.863 5.124 3.261 0.931 1.397-4.192 4.192-0.932 6.987-2.329-0.932 1.863-0.466 5.59 2.794 3.261l3.727-3.261c2.329 5.59 6.055 3.261 7.918 2.329 20.495-13.042 40.99-28.413 60.553-43.784l-0.466 6.055 2.329-7.453c2.329 2.329 4.192 0.466 5.124-0.931 2.795-4.658 6.521-9.316 12.577-13.508-7.453 20.029-16.303 35.866-27.482 48.908l-4.658 5.59c0 3.261-0.932 7.453-4.658 7.918-1.863 0.466-5.59-0.932-8.384 1.863-1.397 1.863 3.261 5.59-0.466 2.795-3.261-2.329-6.521 0-10.248 0.932-2.795 0.932 1.863 3.726 2.795 5.589 0.932 1.863 1.863 3.726 1.398 6.056l-5.124-5.59c-6.055 3.261-9.782 9.316-14.906 13.974-2.329 1.863-1.397 5.124-1.397 7.918-3.261 0-6.987-0.932-8.85 0.932-1.397 1.863-0.932 4.658-0.932 7.453-4.658-0.466-5.124-7.453-9.315-6.056-4.192 0.932-8.85 1.397-12.577 3.727 2.795 5.59-4.658 2.329-3.726 3.26-6.987-4.192-13.042-7.453-20.495-4.658-15.837-5.124-35.4-2.795-49.84-0.931 0-2.329 0.466-4.658-0.466-5.124-0.932 2.329-3.726 1.397-3.26 1.397-8.85-6.055-17.7-9.782-27.016-14.905-8.384 0.932-16.303-3.261-18.632-5.59-6.521-6.055-13.974-2.795-20.029-4.192-13.042-3.261-17.7-16.769-19.098-26.084-0.932-4.658-4.658-6.521-6.055-6.056-6.055-19.563-15.371-37.263-22.824-55.429-1.863-4.658-1.397-9.316-1.397-14.44 2.329 0.932 4.658 0.466 4.192-2.794-2.329-15.371-7.918-27.016-13.974-38.195 3.261-15.837 3.726-34.469 11.179-48.443 6.521-12.576 18.632-19.098 27.016-29.811 2.795-3.726 2.795-8.85 5.59-12.11 9.316-9.316 18.632-19.098 28.879-27.482 4.658-3.726 10.247 0 17.234-1.397 2.329-8.384 11.645-15.837 20.495-13.508 3.726 0.932 11.179-8.85 13.508-9.782 3.726-1.397 1.863 3.726 1.863 6.987 8.85-6.987 20.961-10.713 32.14-14.906" fill="#ea3c12" fill-rule="nonzero" stroke="none" stroke-width="1" stroke-linecap="butt" stroke-linejoin="miter" stroke-miterlimit="10" stroke-dasharray="" stroke-dashoffset="0" font-family="none" font-weight="none" font-size="none" text-anchor="none" style="mix-blend-mode: normal" data-fill-palette-color="tertiary"></path></g><g transform="matrix(1,0,0,1,64,97.53986281664679)"><svg viewBox="0 0 192 164.92027436670642" height="164.92027436670642" width="192"><g><svg viewBox="0 0 192 164.92027436670642" height="164.92027436670642" width="192"><g><svg viewBox="0 0 192 164.92027436670642" height="164.92027436670642" width="192"><g transform="matrix(1,0,0,1,0,122.08270228816065)"><svg viewBox="0 0 192 42.83757207854577" height="42.83757207854577" width="192"><g id="textblocktransform"><svg viewBox="0 0 192 42.83757207854577" height="42.83757207854577" width="192" id="textblock"><g><svg viewBox="0 0 192 25.216229428059314" height="25.216229428059314" width="192"><g transform="matrix(1,0,0,1,0,0)"><svg width="192" viewBox="0.6000000238418579 -39.599998474121094 306.8299865722656 40.29999923706055" height="25.216229428059314" data-palette-color="#ea3c12"><path d="M43.75-30.7L43.75-38.9 59.75-38.9 59.75-30.7 57.75-30.7 50.3 0 35.35 0 30.8-21.6 30.3-21.6 25.5 0 10.55 0 2.6-30.7 0.6-30.7 0.6-38.9 19.1-38.9 19.1-30.7 17.2-30.7 19.15-17.95 19.65-17.95 24.4-38.9 38.8-38.9 43.2-17.95 43.7-17.95 45.65-30.7 43.75-30.7ZM72.65 0.7Q65.55 0.7 61.55-3.03 57.55-6.75 57.55-13.9L57.55-13.9Q57.55-21.05 61.55-24.78 65.55-28.5 72.65-28.5L72.65-28.5Q79.85-28.5 83.8-24.73 87.75-20.95 87.75-13.9L87.75-13.9Q87.75-6.75 83.75-3.03 79.75 0.7 72.65 0.7L72.65 0.7ZM72.65-8.2Q74.1-8.2 74.82-8.97 75.55-9.75 75.55-11.4L75.55-11.4 75.55-16.4Q75.55-18.05 74.82-18.82 74.1-19.6 72.65-19.6L72.65-19.6Q71.2-19.6 70.47-18.82 69.75-18.05 69.75-16.4L69.75-16.4 69.75-11.4Q69.75-9.75 70.47-8.97 71.2-8.2 72.65-8.2L72.65-8.2ZM110.7-28.5Q111.7-28.5 112.6-28.3 113.5-28.1 114.1-27.8L114.1-27.8 114.1-18.25Q112.05-19.1 109.7-19.1L109.7-19.1Q106.55-19.1 104.85-17.45 103.15-15.8 103.15-12.55L103.15-12.55 103.15-8.2 107.65-8.2 107.65 0 89.45 0 89.45-8.2 91.65-8.2 91.65-19.6 89.45-19.6 89.45-27.8 103.15-27.8 103.15-24.15Q104.55-26.25 106.35-27.38 108.15-28.5 110.7-28.5L110.7-28.5ZM125.54 0.7Q120.44 0.7 117.87-3.1 115.29-6.9 115.29-13.9L115.29-13.9Q115.29-20.9 117.87-24.7 120.44-28.5 125.54-28.5L125.54-28.5Q128.09-28.5 130.07-27.25 132.04-26 133.29-24.4L133.29-24.4 133.29-30.7 130.34-30.7 130.34-38.9 144.79-38.9 144.79-8.2 146.99-8.2 146.99 0 133.29 0 133.29-3.4Q132.04-1.8 130.07-0.55 128.09 0.7 125.54 0.7L125.54 0.7ZM130.39-8.2Q131.84-8.2 132.57-8.97 133.29-9.75 133.29-11.4L133.29-11.4 133.29-16.4Q133.29-18.05 132.57-18.82 131.84-19.6 130.39-19.6L130.39-19.6Q128.94-19.6 128.22-18.82 127.49-18.05 127.49-16.4L127.49-16.4 127.49-11.4Q127.49-9.75 128.22-8.97 128.94-8.2 130.39-8.2L130.39-8.2ZM164.19 0.7Q159.39 0.7 155.12-0.13 150.84-0.95 148.54-2L148.54-2 148.54-11.9 159.54-11.9Q159.54-10.35 160.24-9.65 160.94-8.95 162.79-8.95L162.79-8.95Q164.34-8.95 165.02-9.43 165.69-9.9 165.69-10.85L165.69-10.85Q165.69-11.65 165.04-12.23 164.39-12.8 162.79-13.4L162.79-13.4 158.49-14.9Q152.94-17 150.52-19.85 148.09-22.7 148.09-27.55L148.09-27.55Q148.09-33.45 151.97-36.52 155.84-39.6 164.89-39.6L164.89-39.6Q169.24-39.6 173.07-38.73 176.89-37.85 179.24-36.4L179.24-36.4 179.24-27.45 169.24-27.45Q169.24-29.95 166.14-29.95L166.14-29.95Q164.64-29.95 164.02-29.58 163.39-29.2 163.39-28.25L163.39-28.25Q163.39-27.4 164.12-26.9 164.84-26.4 166.49-25.85L166.49-25.85 170.84-24.35Q176.14-22.55 178.57-19.68 180.99-16.8 180.99-12.15L180.99-12.15Q180.99-5.8 176.72-2.55 172.44 0.7 164.19 0.7L164.19 0.7ZM230.59-8.2L232.79-8.2 232.79 0 216.99 0 216.99-8.2 219.09-8.2 219.09-16.4Q219.09-18.05 218.39-18.82 217.69-19.6 216.29-19.6L216.29-19.6Q213.29-19.6 213.29-16.4L213.29-16.4 213.29-8.2 215.39-8.2 215.39 0 199.69 0 199.69-8.2 201.79-8.2 201.79-16.4Q201.79-18.05 201.09-18.82 200.39-19.6 198.99-19.6L198.99-19.6Q195.99-19.6 195.99-16.4L195.99-16.4 195.99-8.2 198.09-8.2 198.09 0 182.29 0 182.29-8.2 184.49-8.2 184.49-19.6 182.29-19.6 182.29-27.8 195.99-27.8 195.99-23.9Q199.59-28.5 204.99-28.5L204.99-28.5Q208.04-28.5 209.96-27.08 211.89-25.65 212.69-23.05L212.69-23.05Q214.49-25.65 216.81-27.05 219.14-28.45 222.29-28.45L222.29-28.45Q226.44-28.45 228.51-25.85 230.59-23.25 230.59-18.7L230.59-18.7 230.59-8.2ZM246.99-30.55L236.79-30.55 236.79-38.9 246.99-38.9 246.99-30.55ZM250.29 0L234.39 0 234.39-8.2 236.59-8.2 236.59-19.6 234.39-19.6 234.39-27.8 248.09-27.8 248.09-8.2 250.29-8.2 250.29 0ZM264.03 0.7Q258.73 0.7 256.06-1.88 253.38-4.45 253.38-10.55L253.38-10.55 253.38-19.6 251.18-19.6 251.18-27.8Q253.08-27.8 254.03-28.78 254.98-29.75 254.98-31.45L254.98-31.45 254.98-33.7 265.58-33.7 265.58-27.8 272.33-27.8 272.33-19.6 265.58-19.6 265.58-11.4Q265.58-9.75 266.31-8.97 267.03-8.2 268.48-8.2L268.48-8.2Q270.38-8.2 272.63-8.65L272.63-8.65 272.63-0.8Q271.23-0.25 268.86 0.23 266.48 0.7 264.03 0.7L264.03 0.7ZM305.23-8.2L307.43-8.2 307.43 0 291.63 0 291.63-8.2 293.73-8.2 293.73-16.4Q293.73-18.05 293.03-18.82 292.33-19.6 290.93-19.6L290.93-19.6Q287.93-19.6 287.93-16.4L287.93-16.4 287.93-8.2 290.03-8.2 290.03 0 274.23 0 274.23-8.2 276.43-8.2 276.43-30.7 274.23-30.7 274.23-38.9 287.93-38.9 287.93-23.9Q289.78-26.2 291.93-27.35 294.08-28.5 296.93-28.5L296.93-28.5Q301.08-28.5 303.16-25.9 305.23-23.3 305.23-18.75L305.23-18.75 305.23-8.2Z" opacity="1" transform="matrix(1,0,0,1,0,0)" fill="#ea3c12" class="undefined-text-0" data-fill-palette-color="primary" id="text-0"></path></svg></g></svg></g><g transform="matrix(1,0,0,1,0,28.89588249111944)"><svg viewBox="0 0 192 13.941689587426326" height="13.941689587426326" width="192"><g transform="matrix(1,0,0,1,0,0)"><svg width="192" viewBox="1.7999999523162842 -34.29999923706055 636.2000122070312 46.19999694824219" height="13.941689587426326" data-palette-color="#ea9937"><path d="M21.3-34.3Q25.3-34.3 28.33-33.02 31.35-31.75 33-29.35 34.65-26.95 34.65-23.65L34.65-23.65Q34.65-18.6 31.05-15.68 27.45-12.75 21.35-12.75L21.35-12.75 13.35-12.75 13.35-4.15 20.2-4.15 20.2 0 1.8 0 1.8-4.15 8.25-4.15 8.25-30.15 1.8-30.15 1.8-34.3 21.3-34.3ZM21.1-16.9Q24.8-16.9 27.18-18.48 29.55-20.05 29.55-23.7L29.55-23.7Q29.55-27.05 27.15-28.6 24.75-30.15 21-30.15L21-30.15 13.35-30.15 13.35-16.95 21.1-16.9ZM59.65-6.7L61.75-3.5Q56.95 0.7 50.8 0.7L50.8 0.7Q47.45 0.7 44.45-0.7 41.45-2.1 39.6-4.8 37.75-7.5 37.75-11.2L37.75-11.2Q37.75-15.15 39.65-18.1 41.55-21.05 44.6-22.63 47.65-24.2 51-24.2L51-24.2Q53.95-24.2 56.27-23.25 58.6-22.3 59.92-20.6 61.25-18.9 61.25-16.7L61.25-16.7Q61.25-13.4 58.42-11.58 55.6-9.75 51.65-9.75L51.65-9.75Q49.1-9.75 46.9-10.28 44.7-10.8 42.45-11.8L42.45-11.8 42.45-11.35Q42.45-9 43.57-7.2 44.7-5.4 46.6-4.45 48.5-3.5 50.75-3.5L50.75-3.5Q55.85-3.5 59.65-6.7L59.65-6.7ZM51.35-20.3Q48.65-20.3 46.32-18.75 44-17.2 43-14.55L43-14.55Q46.8-13.2 50.6-13.2L50.6-13.2Q53.1-13.2 54.72-14.13 56.35-15.05 56.35-16.7L56.35-16.7Q56.35-18.3 54.95-19.3 53.55-20.3 51.35-20.3L51.35-20.3ZM94.65-3.95L99.35-3.95 99.35 0 85.45 0 85.45-3.95 89.8-3.95 89.8-13.7Q89.8-16.45 88.42-18.03 87.05-19.6 84.5-19.6L84.5-19.6Q80.15-19.6 75.3-14.1L75.3-14.1 75.3-3.95 79.65-3.95 79.65 0 65.1 0 65.1-3.95 70.4-3.95 70.4-19.6 65.1-19.6 65.1-23.55 75.3-23.55 75.3-18Q78.1-21.1 80.67-22.63 83.25-24.15 86.2-24.15L86.2-24.15Q90.25-24.15 92.45-21.55 94.65-18.95 94.65-13.85L94.65-13.85 94.65-3.95ZM145.19-4.05L146.24-0.45Q145.54-0.05 144.54 0.23 143.54 0.5 142.44 0.5L142.44 0.5Q140.59 0.5 139.24-0.48 137.89-1.45 137.39-3.3L137.39-3.3Q135.39-1.5 133.17-0.4 130.94 0.7 128.24 0.7L128.24 0.7Q125.19 0.7 122.57-0.85 119.94-2.4 118.39-5.18 116.84-7.95 116.84-11.45L116.84-11.45Q116.84-15.1 118.47-18.03 120.09-20.95 122.89-22.58 125.69-24.2 129.09-24.2L129.09-24.2Q133.44-24.2 137.09-21L137.09-21 137.09-30.35 131.79-30.35 131.79-34.3 141.89-34.3 141.89-6.05Q141.89-3.65 143.54-3.65L143.54-3.65Q144.64-3.65 145.19-4.05L145.19-4.05ZM121.94-11.5Q121.94-7.9 123.97-5.7 125.99-3.5 129.24-3.5L129.24-3.5Q132.99-3.5 137.09-6.9L137.09-6.9 137.09-17.25Q133.59-20.05 130.19-20.05L130.19-20.05Q127.84-20.05 125.94-18.95 124.04-17.85 122.99-15.9 121.94-13.95 121.94-11.5L121.94-11.5ZM162.19 0.7Q158.74 0.7 155.74-0.85 152.74-2.4 150.96-5.25 149.19-8.1 149.19-11.75L149.19-11.75Q149.19-15.45 150.96-18.28 152.74-21.1 155.74-22.65 158.74-24.2 162.19-24.2L162.19-24.2Q165.59-24.2 168.56-22.65 171.54-21.1 173.34-18.25 175.14-15.4 175.14-11.75L175.14-11.75Q175.14-8.1 173.39-5.25 171.64-2.4 168.66-0.85 165.69 0.7 162.19 0.7L162.19 0.7ZM162.19-3.25Q164.44-3.25 166.24-4.3 168.04-5.35 169.06-7.28 170.09-9.2 170.09-11.75L170.09-11.75Q170.09-14.3 169.06-16.23 168.04-18.15 166.24-19.2 164.44-20.25 162.19-20.25L162.19-20.25Q158.74-20.25 156.51-17.93 154.29-15.6 154.29-11.75L154.29-11.75Q154.29-7.9 156.51-5.58 158.74-3.25 162.19-3.25L162.19-3.25ZM219.54-23.55L219.54-19.6 215.99-19.6 208.24 0.65 205.79 0.65 198.14-15.75 190.54 0.65 188.04 0.65 180.39-19.6 176.74-19.6 176.74-23.55 189.54-23.55 189.54-19.95 185.19-19.95 189.99-6.2 197.29-22.9 199.99-22.9 207.19-6.4 211.84-19.95 207.49-19.95 207.49-23.55 219.54-23.55ZM251.18-3.95L255.88-3.95 255.88 0 241.98 0 241.98-3.95 246.33-3.95 246.33-13.7Q246.33-16.45 244.96-18.03 243.58-19.6 241.03-19.6L241.03-19.6Q236.68-19.6 231.83-14.1L231.83-14.1 231.83-3.95 236.18-3.95 236.18 0 221.63 0 221.63-3.95 226.93-3.95 226.93-19.6 221.63-19.6 221.63-23.55 231.83-23.55 231.83-18Q234.63-21.1 237.21-22.63 239.78-24.15 242.73-24.15L242.73-24.15Q246.78-24.15 248.98-21.55 251.18-18.95 251.18-13.85L251.18-13.85 251.18-3.95ZM303.53-23.55L303.53-19.6 299.83-19.6 289.93 2.6Q287.83 7.25 285.2 9.58 282.58 11.9 279.08 11.9L279.08 11.9Q277.13 11.9 275.55 11.28 273.98 10.65 272.13 9.45L272.13 9.45 274.13 5.7Q276.68 7.55 279.08 7.55L279.08 7.55Q281.23 7.55 282.93 6.18 284.63 4.8 285.93 1.8L285.93 1.8 286.28 1 276.18-19.6 272.28-19.6 272.28-23.55 285.48-23.55 285.48-19.95 281.43-19.95 288.53-4.15 295.48-19.95 291.63-19.95 291.63-23.55 303.53-23.55ZM317.93 0.7Q314.48 0.7 311.48-0.85 308.48-2.4 306.7-5.25 304.93-8.1 304.93-11.75L304.93-11.75Q304.93-15.45 306.7-18.28 308.48-21.1 311.48-22.65 314.48-24.2 317.93-24.2L317.93-24.2Q321.33-24.2 324.3-22.65 327.28-21.1 329.08-18.25 330.88-15.4 330.88-11.75L330.88-11.75Q330.88-8.1 329.13-5.25 327.38-2.4 324.4-0.85 321.43 0.7 317.93 0.7L317.93 0.7ZM317.93-3.25Q320.18-3.25 321.98-4.3 323.78-5.35 324.8-7.28 325.83-9.2 325.83-11.75L325.83-11.75Q325.83-14.3 324.8-16.23 323.78-18.15 321.98-19.2 320.18-20.25 317.93-20.25L317.93-20.25Q314.48-20.25 312.25-17.93 310.03-15.6 310.03-11.75L310.03-11.75Q310.03-7.9 312.25-5.58 314.48-3.25 317.93-3.25L317.93-3.25ZM364.12-4L365.22-0.45Q363.52 0.5 361.47 0.5L361.47 0.5Q359.12 0.5 357.67-0.9 356.22-2.3 356.02-4.9L356.02-4.9Q353.52-2.15 351.12-0.75 348.72 0.65 346.07 0.65L346.07 0.65Q342.17 0.65 340.05-1.95 337.92-4.55 337.92-9.6L337.92-9.6 337.92-19.6 333.22-19.6 333.22-23.55 342.82-23.55 342.82-9.75Q342.82-6.95 344-5.43 345.17-3.9 347.77-3.9L347.77-3.9Q351.62-3.9 355.97-8.75L355.97-8.75 355.97-19.6 351.67-19.6 351.67-23.55 360.87-23.55 360.87-6.05Q360.87-3.6 362.57-3.6L362.57-3.6Q363.57-3.6 364.12-4L364.12-4ZM389.17-24.15L391.27-24.15 391.27-14.15 386.92-14.15 386.92-19.3Q384.97-19.3 382.67-17.85 380.37-16.4 377.92-13.75L377.92-13.75 377.92-3.95 383.27-3.95 383.27 0 367.72 0 367.72-3.95 373.02-3.95 373.02-19.6 367.72-19.6 367.72-23.55 377.92-23.55 377.92-17.65Q380.57-20.7 383.45-22.43 386.32-24.15 389.17-24.15L389.17-24.15ZM428.92-5.35L430.62-1.65Q428.77-0.55 426.99 0.05 425.22 0.65 422.92 0.65L422.92 0.65Q419.07 0.65 416.79-1.78 414.52-4.2 414.52-8.7L414.52-8.7 414.52-19.6 409.27-19.6 409.27-23.55 414.52-23.55 414.52-30.1 419.42-30.1 419.42-23.55 427.22-23.55 427.22-19.6 419.42-19.6 419.42-8.65Q419.42-6.1 420.57-4.9 421.72-3.7 423.67-3.7L423.67-3.7Q425.07-3.7 426.32-4.13 427.57-4.55 428.92-5.35L428.92-5.35ZM460.86-3.95L465.56-3.95 465.56 0 451.66 0 451.66-3.95 456.01-3.95 456.01-13.7Q456.01-16.6 454.64-18.2 453.26-19.8 450.66-19.8L450.66-19.8Q446.61-19.8 441.66-14.3L441.66-14.3 441.66-3.95 445.96-3.95 445.96 0 431.46 0 431.46-3.95 436.76-3.95 436.76-30.35 431.46-30.35 431.46-34.3 441.66-34.3 441.66-18.15Q444.41-21.15 446.99-22.65 449.56-24.15 452.61-24.15L452.61-24.15Q456.66-24.15 458.76-21.58 460.86-19 460.86-13.85L460.86-13.85 460.86-3.95ZM481.01 0.7Q477.56 0.7 474.56-0.85 471.56-2.4 469.79-5.25 468.01-8.1 468.01-11.75L468.01-11.75Q468.01-15.45 469.79-18.28 471.56-21.1 474.56-22.65 477.56-24.2 481.01-24.2L481.01-24.2Q484.41-24.2 487.39-22.65 490.36-21.1 492.16-18.25 493.96-15.4 493.96-11.75L493.96-11.75Q493.96-8.1 492.21-5.25 490.46-2.4 487.49-0.85 484.51 0.7 481.01 0.7L481.01 0.7ZM481.01-3.25Q483.26-3.25 485.06-4.3 486.86-5.35 487.89-7.28 488.91-9.2 488.91-11.75L488.91-11.75Q488.91-14.3 487.89-16.23 486.86-18.15 485.06-19.2 483.26-20.25 481.01-20.25L481.01-20.25Q477.56-20.25 475.34-17.93 473.11-15.6 473.11-11.75L473.11-11.75Q473.11-7.9 475.34-5.58 477.56-3.25 481.01-3.25L481.01-3.25ZM527.21-4L528.31-0.45Q526.61 0.5 524.56 0.5L524.56 0.5Q522.21 0.5 520.76-0.9 519.31-2.3 519.11-4.9L519.11-4.9Q516.61-2.15 514.21-0.75 511.81 0.65 509.16 0.65L509.16 0.65Q505.26 0.65 503.13-1.95 501.01-4.55 501.01-9.6L501.01-9.6 501.01-19.6 496.31-19.6 496.31-23.55 505.91-23.55 505.91-9.75Q505.91-6.95 507.08-5.43 508.26-3.9 510.86-3.9L510.86-3.9Q514.71-3.9 519.06-8.75L519.06-8.75 519.06-19.6 514.76-19.6 514.76-23.55 523.96-23.55 523.96-6.05Q523.96-3.6 525.66-3.6L525.66-3.6Q526.66-3.6 527.21-4L527.21-4ZM549.71-4.45Q552.9-4.45 554.88-2.85 556.86-1.25 556.86 1.65L556.86 1.65Q556.86 4.45 554.75 6.55 552.65 8.65 549.11 9.78 545.56 10.9 541.4 10.9L541.4 10.9Q536.36 10.9 533.13 9.03 529.9 7.15 529.9 3.9L529.9 3.9Q529.9 2.45 530.68 1.18 531.46-0.1 532.65-1.05L532.65-1.05Q531.65-1.8 531.13-2.83 530.61-3.85 530.61-5L530.61-5Q530.61-6.85 531.65-8.33 532.71-9.8 534.4-10.8L534.4-10.8Q532.71-12.9 532.71-15.6L532.71-15.6Q532.71-18.3 534.28-20.25 535.86-22.2 538.31-23.2 540.75-24.2 543.31-24.2L543.31-24.2Q546.25-24.2 548.75-23.1L548.75-23.1Q549.65-25.7 551.68-27.05 553.71-28.4 556.5-28.5L556.5-28.5 556.5-24.4Q554.56-24.3 553.23-23.75 551.9-23.2 550.9-21.85L550.9-21.85Q554-19.5 554-15.75L554-15.75Q554-13.05 552.46-11.1 550.9-9.15 548.43-8.15 545.96-7.15 543.31-7.15L543.31-7.15Q539.46-7.15 536.4-9.05L536.4-9.05Q534.9-7.7 534.9-6.15L534.9-6.15Q534.9-4.85 535.93-4.13 536.96-3.4 538.75-3.4L538.75-3.4Q540.46-3.4 543.86-3.9L543.86-3.9Q545.21-4.1 546.75-4.28 548.31-4.45 549.71-4.45L549.71-4.45ZM543.36-20.7Q540.9-20.7 539.21-19.28 537.5-17.85 537.5-15.6L537.5-15.6Q537.5-13.35 539.18-12 540.86-10.65 543.36-10.65L543.36-10.65Q545.96-10.65 547.58-12.05 549.21-13.45 549.21-15.75L549.21-15.75Q549.21-18 547.53-19.35 545.86-20.7 543.36-20.7L543.36-20.7ZM542.11 6.85Q544.75 6.85 547.13 6.25 549.5 5.65 550.93 4.53 552.36 3.4 552.36 1.95L552.36 1.95Q552.36-0.6 548.65-0.6L548.65-0.6Q547.65-0.6 546.46-0.45 545.25-0.3 544.11-0.1L544.11-0.1Q542.71 0.15 541.08 0.35 539.46 0.55 537.9 0.55L537.9 0.55Q536.56 0.55 535.15 0.2L535.15 0.2Q534.15 1.35 534.15 2.9L534.15 2.9Q534.15 4.75 536.25 5.8 538.36 6.85 542.11 6.85L542.11 6.85ZM588.05-3.95L592.75-3.95 592.75 0 578.85 0 578.85-3.95 583.2-3.95 583.2-13.7Q583.2-16.6 581.83-18.2 580.45-19.8 577.85-19.8L577.85-19.8Q573.8-19.8 568.85-14.3L568.85-14.3 568.85-3.95 573.15-3.95 573.15 0 558.65 0 558.65-3.95 563.95-3.95 563.95-30.35 558.65-30.35 558.65-34.3 568.85-34.3 568.85-18.15Q571.6-21.15 574.18-22.65 576.75-24.15 579.8-24.15L579.8-24.15Q583.85-24.15 585.95-21.58 588.05-19 588.05-13.85L588.05-13.85 588.05-3.95ZM612.85-5.35L614.55-1.65Q612.7-0.55 610.92 0.05 609.15 0.65 606.85 0.65L606.85 0.65Q603 0.65 600.72-1.78 598.45-4.2 598.45-8.7L598.45-8.7 598.45-19.6 593.2-19.6 593.2-23.55 598.45-23.55 598.45-30.1 603.35-30.1 603.35-23.55 611.15-23.55 611.15-19.6 603.35-19.6 603.35-8.65Q603.35-6.1 604.5-4.9 605.65-3.7 607.6-3.7L607.6-3.7Q609-3.7 610.25-4.13 611.5-4.55 612.85-5.35L612.85-5.35ZM628.45-13.9Q633.05-12.65 635.52-10.78 638-8.9 638-5.75L638-5.75Q638-2.85 635.55-1.07 633.1 0.7 629.5 0.7L629.5 0.7Q627 0.7 624.57-0.18 622.15-1.05 620.25-2.6L620.25-2.6 620.25 0.05 616.45 0.05 616.45-7.6 618.6-7.8Q620.5-5.65 623.37-4.13 626.25-2.6 629-2.6L629-2.6Q630.85-2.6 631.9-3.3 632.95-4 632.95-5.3L632.95-5.3Q632.95-6.8 631.3-7.78 629.65-8.75 625.9-9.75L625.9-9.75Q621.4-10.95 618.97-12.78 616.55-14.6 616.55-17.55L616.55-17.55Q616.55-19.4 617.57-20.93 618.6-22.45 620.47-23.33 622.35-24.2 624.8-24.2L624.8-24.2Q627.2-24.2 629.37-23.4 631.55-22.6 633.15-21.15L633.15-21.15 633.15-23.55 636.9-23.55 636.9-15.95 634.7-15.7Q633.3-18.05 630.87-19.48 628.45-20.9 626.05-20.9L626.05-20.9Q624.1-20.9 622.85-20.13 621.6-19.35 621.6-18.1L621.6-18.1Q621.6-16.75 623.25-15.83 624.9-14.9 628.45-13.9L628.45-13.9Z" opacity="1" transform="matrix(1,0,0,1,0,0)" fill="#ea9937" class="undefined-text-1" data-fill-palette-color="secondary" id="text-1"></path></svg></g></svg></g></svg></g></svg></g><g transform="matrix(1,0,0,1,50.190892288304134,0)"><svg viewBox="0 0 91.61821542339173 118.40304922510052" height="118.40304922510052" width="91.61821542339173"><g><svg xmlns="http://www.w3.org/2000/svg" xmlns:xlink="http://www.w3.org/1999/xlink" version="1.1" x="0" y="0" viewBox="12.982999801635742 1 75.68599700927734 97.81300354003906" enable-background="new 0 0 100 100" xml:space="preserve" height="118.40304922510052" width="91.61821542339173" class="icon-icon-0" data-fill-palette-color="accent" id="icon-0"><g fill="#ea9937" data-fill-palette-color="accent"><polygon fill-rule="evenodd" clip-rule="evenodd" points="12.983,10.59 30.001,98.813 24.129,39.764 53.15,37.872 53.096,27.989    64.549,1 53.622,18.977  " fill="#ea9937" data-fill-palette-color="accent"></polygon><polygon fill-rule="evenodd" clip-rule="evenodd" points="59.389,54.548 64.549,1.007 55.809,40.723 36.197,41.768 37.767,62.23    30.001,98.813 42.058,58.914  " fill="#ea9937" data-fill-palette-color="accent"></polygon><polygon fill-rule="evenodd" clip-rule="evenodd" points="62.8,67.182 63.349,56.729 47.37,60.484 47.338,72.281 30.001,98.813    51.681,71.197  " fill="#ea9937" data-fill-palette-color="accent"></polygon><polygon fill-rule="evenodd" clip-rule="evenodd" points="65.711,62.394 80.552,57.663 82.061,45.131 66.162,47.226  " fill="#ea9937" data-fill-palette-color="accent"></polygon><polygon fill-rule="evenodd" clip-rule="evenodd" points="72.07,44.502 83.058,43.085 84.639,32.807 76.56,32.434 64.549,1    72.979,31.967  " fill="#ea9937" data-fill-palette-color="accent"></polygon><polygon fill-rule="evenodd" clip-rule="evenodd" points="87.413,31.294 88.669,21.788 79.125,19.094 64.549,1 79.032,23.437    78.61,30.437  " fill="#ea9937" data-fill-palette-color="accent"></polygon></g></svg></g></svg></g><g></g></svg></g></svg></g></svg></g></svg></g><defs></defs></svg><rect width="320" height="360" fill="none" stroke="none" visibility="hidden"></rect></g></svg></g></svg>